<svg width="24" height="24" viewBox="0 0 24 24" fill="none" xmlns="http://www.w3.org/2000/svg">
<path d="M20 21H4C3.46957 21 2.96086 20.7893 2.58579 20.4142C2.21071 20.0391 2 19.5304 2 19V5C2 4.46957 2.21071 3.96086 2.58579 3.58579C2.96086 3.21071 3.46957 3 4 3H20C20.5304 3 21.0391 3.21071 21.4142 3.58579C21.7893 3.96086 22 4.46957 22 5V19C22 19.5304 21.7893 20.0391 21.4142 20.4142C21.0391 20.7893 20.5304 21 20 21ZM4 7V19H20V7H4ZM14.707 16.707L13.294 15.294L15.586 13L13.293 10.707L14.707 9.293L18.414 13L14.708 16.706L14.707 16.707V16.707ZM9.293 16.707L5.586 13L9.293 9.293L10.707 10.707L8.414 13L10.706 15.293L9.293 16.706V16.707V16.707Z" fill="#06D2DF"/>
</svg>
