<svg width="24" height="24" viewBox="0 0 24 24" fill="none" xmlns="http://www.w3.org/2000/svg">
<path d="M4.125 21C3.42881 21 2.76113 20.7234 2.26884 20.2312C1.77656 19.7389 1.5 19.0712 1.5 18.375V14.625C1.5 14.3266 1.61853 14.0405 1.8295 13.8295C2.04048 13.6185 2.32663 13.5 2.625 13.5C2.92337 13.5 3.20952 13.6185 3.4205 13.8295C3.63147 14.0405 3.75 14.3266 3.75 14.625V18.375C3.75 18.582 3.918 18.75 4.125 18.75H19.875C19.9745 18.75 20.0698 18.7105 20.1402 18.6402C20.2105 18.5698 20.25 18.4745 20.25 18.375V14.625C20.25 14.3266 20.3685 14.0405 20.5795 13.8295C20.7905 13.6185 21.0766 13.5 21.375 13.5C21.6734 13.5 21.9595 13.6185 22.1705 13.8295C22.3815 14.0405 22.5 14.3266 22.5 14.625V18.375C22.5 19.0712 22.2234 19.7389 21.7312 20.2312C21.2389 20.7234 20.5712 21 19.875 21H4.125Z" fill="#CECECE"/>
<path d="M10.875 11.5335V3C10.875 2.70163 10.9935 2.41548 11.2045 2.2045C11.4155 1.99353 11.7016 1.875 12 1.875C12.2983 1.875 12.5845 1.99353 12.7955 2.2045C13.0064 2.41548 13.125 2.70163 13.125 3V11.5335L16.08 8.58C16.1844 8.4756 16.3083 8.39278 16.4447 8.33628C16.5811 8.27978 16.7273 8.2507 16.875 8.2507C17.0226 8.2507 17.1688 8.27978 17.3052 8.33628C17.4416 8.39278 17.5656 8.4756 17.67 8.58C17.7744 8.6844 17.8572 8.80834 17.9137 8.94475C17.9702 9.08116 17.9993 9.22735 17.9993 9.375C17.9993 9.52265 17.9702 9.66884 17.9137 9.80525C17.8572 9.94166 17.7744 10.0656 17.67 10.17L12.795 15.045C12.6906 15.1495 12.5667 15.2324 12.4303 15.289C12.2939 15.3455 12.1476 15.3746 12 15.3746C11.8523 15.3746 11.7061 15.3455 11.5697 15.289C11.4332 15.2324 11.3093 15.1495 11.205 15.045L6.32997 10.17C6.22557 10.0656 6.14276 9.94166 6.08625 9.80525C6.02975 9.66884 6.00067 9.52265 6.00067 9.375C6.00067 9.22735 6.02975 9.08116 6.08625 8.94475C6.14276 8.80834 6.22557 8.6844 6.32997 8.58C6.43437 8.4756 6.55831 8.39278 6.69472 8.33628C6.83113 8.27978 6.97733 8.2507 7.12497 8.2507C7.27262 8.2507 7.41882 8.27978 7.55522 8.33628C7.69163 8.39278 7.81557 8.4756 7.91997 8.58L10.875 11.5335Z" fill="#CECECE"/>
</svg>
